<svg width="56" height="56" viewBox="0 0 56 56" fill="none" xmlns="http://www.w3.org/2000/svg">
  <!-- Corps / tête : forme organique asymétrique -->
  <path d="
    M 28 48
    C 16 48 8 40 8 30
    C 8 22 12 16 18 13
    C 16 10 15 6 17 4
    C 19 2 22 4 24 8
    C 25.3 7.5 26.6 7.2 28 7.2
    C 30 7.2 31.8 7.7 33.4 8.6
    C 35 4.5 38 2 40 4
    C 42 6 41 10 39 13.5
    C 44.5 17 48 23 48 30
    C 48 40 40 48 28 48 Z
  " fill="white" opacity="0.95"/>
  <!-- Oeil gauche -->
  <ellipse cx="21" cy="27" rx="3.2" ry="3.5" fill="#1A1208"/>
  <circle cx="22.2" cy="25.5" r="1.1" fill="white"/>
  <!-- Oeil droit -->
  <ellipse cx="35" cy="27" rx="3.2" ry="3.5" fill="#1A1208"/>
  <circle cx="36.2" cy="25.5" r="1.1" fill="white"/>
  <!-- Nez minimaliste -->
  <ellipse cx="28" cy="33" rx="2.5" ry="1.8" fill="rgba(255,255,255,0.6)"/>
  <!-- Reflet subtil sur le corps -->
  <ellipse cx="20" cy="20" rx="5" ry="3" fill="white" opacity="0.15" transform="rotate(-20 20 20)"/>
</svg>
